<?xml version="1.0" encoding="UTF-8"?><svg id="Layer_2" xmlns="http://www.w3.org/2000/svg" xmlns:xlink="http://www.w3.org/1999/xlink" viewBox="0 0 877.16 1080"><defs><style>.cls-1{fill:#fd9904;}.cls-2{fill:url(#linear-gradient-3);}.cls-3{fill:url(#linear-gradient-2);}.cls-4{fill:url(#linear-gradient);}.cls-5{fill:#77c029;}.cls-6{fill:#fdfdfc;}</style><linearGradient id="linear-gradient" x1="-37.02" y1="951.38" x2="597.61" y2="379.43" gradientUnits="userSpaceOnUse"><stop offset="0" stop-color="#fe7e02"/><stop offset="1" stop-color="#fdb201"/></linearGradient><linearGradient id="linear-gradient-2" x1="-66.34" y1="918.84" x2="568.65" y2="346.56" xlink:href="#linear-gradient"/><linearGradient id="linear-gradient-3" x1="-277.1" y1="684.98" x2="357.89" y2="112.7" xlink:href="#linear-gradient"/></defs><g id="Layer_1-2"><path class="cls-4" d="M862.4,502.16c-.78-2.68-.49-3.55-1.65-6.5l-8.96-22.6c-.62-1.56.34-4.95-.92-5.75-3.05-1.94-2.37-5.27-3.76-7.12-2.67-3.54-3.22-7.46-5.12-10.72-7.22-12.43-13.25-24.3-21.02-36.03-25.36-38.33-57.32-70.34-95.63-95.73-25-16.58-60.13-32.42-89.72-38.91-6.45-1.42-12.43-4.37-19.17-3.57-6.88.81-11.01,6.96-10.14,13.69,1.36,10.41,1.1,20.22-1.16,30.12-1.88,8.22-3.53,15.45-7.42,23.38-14.23,29-39.36,45.3-71.17,49.57,26.19-9.51,51.42-36.5,59.58-63.13,8.85-28.92,6.04-58.15-7.16-85.37l-17.11-35.28c-1.06-2.18-2-3.97-3.07-6.1l-30.79-60.9c-25.8-51.03-71.57-123.77-130.56-138.62-13.56-3.41-27.59-3.82-40.36,1.02-8.2,3.11-14.89,9.73-17.13,16.8-5.12,16.11,3.64,27.48,18.67,34.81,21.36,10.43,34.45,30.54,36.24,54.35,1.65,21.9-9.44,49.06-20.93,67.76l-9.52,15.52c-4.32,7.04-8.35,13.57-13.94,19.89-2.73,3.09-4.17,8.26-6.62,12.09-35.6,55.81-27.39,127.07,30.04,166.51-36.04-5.24-64.52-31.65-74.94-65.16-4.09-13.15-4.82-26.1-4.6-39.67.34-5.94-3.53-9.77-9.04-12.1-4.62-1.97-11.81-1.78-16.63.33-2.83,1.23-4.23.22-6.71.58-33.23,4.68-64.01,17.12-93.28,33.2-2.4,1.32-3.9,1.49-6.06,3.18-6.18,4.89-12.99,8.76-20.09,12.85-3.07,1.77-5.61,6.86-9.58,7.03-3.88.15-2.79,2.72-5.01,4.52-52.68,42.91-91.91,99.46-112.12,164.79-42.77,138.22,2.68,291.2,118.9,379.84l16.16,12.32c4.61,3.51,34.94,21.62,40.56,24.35,25.12,12.2,49.42,24.09,76.36,31.49,7.41,2.04,13.61,5.09,12.96,14.57-2.32,33.37-7.31,66.25-12.14,99.41-1.44,9.84,6.28,17.03,15.23,17.16,7.02.09,12.59-1.94,18.57-5.88l154.18-101.47c11.74-7.72,22.14-11.16,36.44-10.66,38.39,1.32,76.58-3.3,113.01-14.84,4.34-1.38,7.6-3.48,8.98-6.38,1.9-3.96.71-7.19-.79-10.9-8.44-20.86-13.47-42.29-15.15-65.07-1.74-23.86-1.73-47.79,2.51-71.75,3.14-17.74,16.33-28.56,32.01-32.76,3.52-.93,6.46-.41,9.39-1.02,4.66-.98,8.61-3.61,13.6-1.72,1.01.17,2.18-2.13,3.45-2.39,23.46-4.97,44.81-14.28,65.8-25.71,2.44-1.32,4.82-1.45,7.26-3.09,10.74-7.21,30.41,2.56,36.69,8.41,3.44,3.19,6.47,3.19,10.49,4.83,16.46,6.74,32.73,13.13,50.27,16.53,8.7,1.68,15.27-2.71,18.22-10.62,6.44-17.23,12.28-33.62,16.94-51.56,16.47-63.43,15-129.02-3.31-191.8ZM532.44,246.53c4.4-1.84,9.61-.7,13.23,2.31,18.83,15.63,18.52,45.79,5.76,50.61-4.69,1.77-10.35.85-14.38-2.76-16.62-14.93-17.75-44.67-4.61-50.16ZM468.85,88.09c19.36,25.8,33.88,54.7,43.09,85.62,2.13,7.12,7.03,28.69,2.89,33.38-3.95,4.48-11.37-3.79-14.26-8.08-8.51-12.66-13.93-26.37-18.35-41.05-5.23-17.32-10.14-33.89-16.61-50.82-5.94-15.53-14.68-28.62-21.54-44.12,11.12,6.73,17.74,15.69,24.78,25.07ZM442.97,60.46c.56,0,1,.45,1,1s-.44,1-1,1-1-.44-1-1,.45-1,1-1ZM724.84,686.32c-25.4,26.98-57.47,43.14-93.49,49.8-32.92,4.84-57.58,29.72-61.07,64.44l-257.11.03c-17.35,0-49.81-6.25-64.12-13.69l-25.16-13.08c-8.21-4.27-14.83-10.49-21.51-16.76-36.3-34.06-57.5-79.53-59.67-129.58-1.95-45.07,12.1-89.23,40.92-124.41,30.66-37.45,76.65-63.26,125.9-63.33l258.67-.33c30.37-.03,58.73,9.91,84.18,25.25,76.78,46.25,102.86,139.4,72.47,221.66Z"/><path class="cls-3" d="M805.5,195.96c.57,10.33-25.09,3.93-45.06,25-11.2,11.81-16.4,27.13-18.32,43.16-.38,3.21-2.43,5.53-5.05,5.99-12.06,2.14-2.27-19.4-20.98-44.24-9.97-13.23-24.92-20.73-41.26-22.98-4.12-.57-6.96-2.51-7.11-6.25-.46-11.3,20.92-3.02,41.71-23.14,13.79-13.32,13.79-23.92,15.52-26.54,6.19-9.39,1.7-24.32,9.97-25.47,10.9-1.52,4.32,14.52,16.13,37.01,18.96,36.09,53.85,26.84,54.44,37.46Z"/><path class="cls-2" d="M302.46,235.46c.13,3.18-1.85,6.05-3.55,7.36-2.11,1.61-5.51,2.38-8.61.77-28.52-14.9-69.47-17.02-83.2-42.14-7.86-14.38-2.56-30.8,11.06-38.99,14.96-9,32.37-8.2,47.82-.26,2.24,1.15,5.75.26,6.01,4.22,20.65,14.22,29.57,45.07,30.48,69.04Z"/><path class="cls-6" d="M514.84,207.09c-3.96,4.49-11.37-3.79-14.26-8.09-8.52-12.66-13.94-26.36-18.36-41.04-5.22-17.32-10.14-33.9-16.61-50.81-5.94-15.53-14.68-28.63-21.54-44.12,11.12,6.73,17.74,15.69,24.78,25.07,19.36,25.8,33.88,54.7,43.1,85.62,2.12,7.12,7.03,28.68,2.89,33.38Z"/><path class="cls-6" d="M545.67,248.84c18.83,15.63,18.52,45.79,5.76,50.6-4.69,1.77-10.35.85-14.37-2.76-16.63-14.92-17.76-44.67-4.62-50.15,4.41-1.84,9.61-.7,13.23,2.31Z"/><circle class="cls-6" cx="442.97" cy="61.46" r="1"/><path class="cls-6" d="M652.37,464.67c-25.45-15.34-53.8-25.29-84.18-25.25l-258.67.33c-49.25.07-95.24,25.88-125.9,63.33-28.82,35.18-42.87,79.35-40.92,124.41,2.17,50.05,23.37,95.53,59.67,129.58,6.68,6.27,13.3,12.49,21.51,16.76l25.16,13.08c14.31,7.45,46.76,13.69,64.12,13.69l257.11-.03c3.5-34.72,28.16-59.6,61.07-64.44,36.02-6.66,68.09-22.81,93.49-49.8,30.39-82.26,4.31-175.41-72.47-221.66ZM333.77,647.83c-6.53,8.92-16.11,12.86-25.94,12.56-9.41-.28-19.2-5.06-25.09-13.96-13.35-20.12-13.89-47.12-1.94-68.11,7.62-13.39,22.75-20.34,37.25-15.54,27.32,9.05,36.82,56.23,15.72,85.06ZM469.06,717.59c-18.78,9.44-41.07,9.32-59.59-.72-17.11-9.28-33.58-34.2-22.5-45.7,2.68-2.79,7.2-4.59,12-3.59,27.34,5.73,54.91,5.95,82.18-.03,4.82-1.05,9.19.94,11.87,3.73,11.05,11.45-5.29,36.91-23.96,46.31ZM572.24,660.42c-9.36.24-19.43-3.84-25.71-12.31-15.56-21.01-15.73-51.55-1.05-72.98,6.05-8.83,15.31-13.37,24.58-13.82,10.19-.51,19.19,4.3,25.74,12.41,8.32,10.3,11.58,23.3,11.73,36.73.23,22.52-10.73,49.34-35.3,49.98Z"/><path class="cls-1" d="M333.77,647.83c-6.53,8.92-16.11,12.86-25.93,12.56-9.41-.28-19.2-5.07-25.09-13.96-13.35-20.13-13.89-47.12-1.94-68.11,7.63-13.39,22.76-20.34,37.25-15.55,27.32,9.05,36.82,56.23,15.72,85.06Z"/><path class="cls-1" d="M607.53,610.44c.24,22.53-10.72,49.34-35.29,49.98-9.37.24-19.43-3.85-25.7-12.31-15.57-21.02-15.73-51.55-1.05-72.98,6.05-8.83,15.3-13.37,24.58-13.83,10.18-.5,19.18,4.3,25.73,12.41,8.32,10.3,11.59,23.3,11.73,36.72Z"/><path class="cls-1" d="M493.02,671.28c11.04,11.45-5.29,36.91-23.97,46.31-18.78,9.45-41.07,9.32-59.58-.72-17.11-9.28-33.58-34.19-22.5-45.7,2.68-2.78,7.2-4.59,12-3.58,27.34,5.72,54.9,5.95,82.18-.03,4.81-1.05,9.18.93,11.87,3.72Z"/><path class="cls-5" d="M855.35,801.67c-.55-6.06-6.41-10.13-12.2-10.99-32.45-4.81-63.06-14.31-91.5-30.58-3.61-2.07-8.32-3.79-12.41-1.88-14.54,6.75-28.04,14.94-43.29,20-17.7,5.87-34.82,9.84-53.11,12.56-5.1.76-10.8,3.96-11.35,8.99l-2.49,22.94c-.31,2.85-.07,4.19-.02,6.97l.36,25c.98,67.39,45.16,129.85,107.15,157.54,4.74,2.11,12.79,1.35,15.81-1.46,2.68-2.51,4.66-1.96,7.28-3.36,23.11-12.22,42.93-28.47,59.41-48.88,37.85-46.85,41.49-99.13,36.33-156.84ZM809.05,852.31l-70.08,73.71c-7.12,7.5-17.6,8.37-25.04.74l-32.35-33.13c-5.8-5.95-4.68-15.6.55-21.06,4.74-4.94,14.05-6.69,19.79-1.15l24.36,23.53,60.6-63.42c5.78-6.05,15.38-5.44,20.87-.38,5.74,5.29,7.13,15.01,1.3,21.15Z"/><path class="cls-6" d="M681.59,893.63c-5.8-5.94-4.68-15.6.55-21.05,4.74-4.94,14.05-6.7,19.79-1.15l24.36,23.54,60.6-63.42c5.78-6.05,15.38-5.44,20.87-.39s7.14,15.01,1.3,21.15l-70.07,73.72c-7.13,7.5-17.61,8.37-25.05.74l-32.34-33.13Z"/></g></svg>