<?xml version="1.0" encoding="UTF-8"?>
<svg id="Layer_2" data-name="Layer 2" xmlns="http://www.w3.org/2000/svg" viewBox="0 0 449.75 581.71">
  <defs>
    <style>
      .cls-1 {
        fill: #f7941d;
      }

      .cls-2 {
        fill: #ed1c24;
      }
    </style>
  </defs>
  <g id="Layer_1-2" data-name="Layer 1">
    <g>
      <g>
        <path class="cls-2" d="M439.61,340.84c.02-.49,.04-1.09,.06-1.58V120.31c-.26-5.44-1.8-23.93-16.35-40.1-17.39-19.33-40.41-20.93-44.91-21.15h-46.41v25.61c0,16.03-13.05,29.05-29.08,29.05H136.74c-16.03,0-29.08-13.02-29.08-29.05v-25.61H61.29C27.44,59.06,0,86.49,0,120.31,.51,249.46,1.02,378.6,1.53,507.74c.19,1.75,1.35,11.03,8.51,15.21,7.28,4.25,17.96,1.6,23.33-3.95,12.57-13-8.99-35.95,.57-64.91,4.57-13.83,16.87-28.87,32.46-30.69,13.02-1.52,28.46,6.26,35.74,18.69,13.24,22.57-1.12,59.24-1.98,94.83,0,.18,0,.45,0,.81-.1,11.21-.19,22.84,5.23,31.82,1.06,1.76,7.32,12.11,16.81,12.16,7.65,.04,13.08-6.63,14.66-8.58,8.85-10.87,7.83-25.4,6.92-36.21-4.92-58.53-9.78-69.16-2.33-83.54,4.81-9.27,15.16-19.68,28.12-19.81,16-.19,29.05,8.46,29.05,19.13-1.03,11.41-2.07,22.82-3.1,34.24-3.21,20.26,9.17,35.32,20.39,35.77,7.71,.31,15.7-6.25,20.39-15.38,.58-5.48,1.35-14.39,1.43-25.39,.22-29.49-4.75-38.03,1.73-48.91,5.92-9.95,18.1-16.08,29.39-16.18,11.58-.1,20.1,6.13,23.84,9.38,0,0,.88,.75,1.67,1.53,10.64,10.41,6.8,53.03,6.08,60.5-.87,4.64-8.3,46.61,9.54,62.23,2.5,2.19,8.14,7.13,15.26,6.44,8-.78,13.01-8.21,14.07-9.78,6.94-10.28,4.8-24.08,.24-51.26-.9-5.37-3.86-22.12,.83-36.71,.41-1.27,.72-2.08,1.05-2.8,4.27-9.12,14.38-17.08,25.41-17.5,16.42-.62,27.91,17.28,29.05,19.13,18.27,29.69-9,64.34,9,81.51,4.94,4.71,12.37,7.24,18.6,5.72,9.66-2.36,16.93-14.61,17.84-30.99-3.41-58.67-3.9-116.47-1.69-173.4Z"/>
        <path class="cls-2" d="M136.74,98.21h166.19c7.5,0,13.58-6.08,13.58-13.55V45.94c0-7.47-6.08-13.55-13.58-13.55h-33.32v-11.84c0-6.79-5.52-12.31-12.31-12.31h-74.89c-6.82,0-12.31,5.52-12.31,12.31v11.84h-33.36c-7.5,0-13.58,6.08-13.58,13.55v38.72c0,7.47,6.08,13.55,13.58,13.55Z"/>
      </g>
      <g>
        <path class="cls-1" d="M448.06,332.6c.02-.49,.04-1.09,.06-1.58V112.06c-.26-5.44-1.8-23.93-16.35-40.1-17.39-19.33-40.41-20.93-44.91-21.15h-46.41v25.61c0,16.03-13.05,29.05-29.08,29.05H145.19c-16.03,0-29.08-13.02-29.08-29.05v-25.61h-46.38c-33.85,0-61.29,27.43-61.29,61.26,.51,129.14,1.02,258.29,1.53,387.43,.19,1.75,1.35,11.03,8.51,15.21,7.28,4.25,17.96,1.6,23.33-3.95,12.57-13-8.99-35.95,.57-64.91,4.57-13.83,16.87-28.87,32.46-30.69,13.02-1.52,28.46,6.26,35.74,18.69,13.24,22.57-1.12,59.24-1.98,94.83,0,.18,0,.45,0,.81-.1,11.21-.19,22.84,5.23,31.82,1.06,1.76,7.32,12.11,16.81,12.16,7.65,.04,13.08-6.63,14.66-8.58,8.85-10.87,7.83-25.4,6.92-36.21-4.92-58.53-9.78-69.16-2.33-83.54,4.81-9.27,15.16-19.68,28.12-19.81,16-.19,29.05,8.46,29.05,19.13-1.03,11.41-2.07,22.82-3.1,34.24-3.21,20.26,9.17,35.32,20.39,35.77,7.71,.31,15.7-6.25,20.39-15.38,.58-5.48,1.35-14.39,1.43-25.39,.22-29.49-4.75-38.03,1.73-48.91,5.92-9.95,18.1-16.08,29.39-16.18,11.58-.1,20.1,6.13,23.84,9.38,0,0,.88,.75,1.67,1.53,10.64,10.41,6.8,53.03,6.08,60.5-.87,4.64-8.3,46.61,9.54,62.23,2.5,2.19,8.14,7.13,15.26,6.44,8-.78,13.01-8.21,14.07-9.78,6.94-10.28,4.8-24.08,.24-51.26-.9-5.37-3.86-22.12,.83-36.71,.41-1.27,.72-2.08,1.05-2.8,4.27-9.12,14.38-17.08,25.41-17.5,16.42-.62,27.91,17.28,29.05,19.13,18.27,29.69-9,64.34,9,81.51,4.94,4.71,12.37,7.24,18.6,5.72,9.66-2.36,16.93-14.61,17.84-30.99-3.41-58.67-3.9-116.47-1.69-173.4Z"/>
        <path class="cls-1" d="M145.19,89.96h166.19c7.5,0,13.58-6.08,13.58-13.55V37.7c0-7.47-6.08-13.55-13.58-13.55h-33.32V12.31c0-6.79-5.52-12.31-12.31-12.31h-74.89c-6.82,0-12.31,5.52-12.31,12.31v11.84h-33.36c-7.5,0-13.58,6.08-13.58,13.55v38.72c0,7.47,6.08,13.55,13.58,13.55Z"/>
      </g>
    </g>
  </g>
</svg>