<?xml version="1.0" encoding="UTF-8"?>
<svg id="Layer_2" data-name="Layer 2" xmlns="http://www.w3.org/2000/svg" viewBox="0 0 702.87 294.91">
  <defs>
    <style>
      .cls-1 {
        fill: #f7941d;
      }
    </style>
  </defs>
  <g id="Layer_1-2" data-name="Layer 1">
    <g>
      <g>
        <path d="M294.12,42.79c8.51,0,16.7,2.13,24.58,6.38v15.01c-9.05-5.46-17.07-8.19-24.08-8.19-4.25,0-7.58.82-9.98,2.47-2.4,1.65-3.6,3.85-3.6,6.6,0,3.29,2.23,6.34,6.69,9.13,1.25.83,6.07,3.17,14.45,7,7.17,3.38,12.34,7.13,15.51,11.26,3.17,4.13,4.75,9.09,4.75,14.89,0,7.5-2.7,13.56-8.1,18.17-5.4,4.61-12.39,6.91-20.98,6.91-5.59,0-10.39-.62-14.42-1.85-4.02-1.23-8.54-3.35-13.54-6.35v-16.64c9.34,7.76,18.14,11.63,26.39,11.63,4.13,0,7.46-.9,10.01-2.69,2.54-1.79,3.81-4.17,3.81-7.13,0-4.04-2.21-7.34-6.63-9.88-3.67-2-8.4-4.4-14.2-7.19-6.88-3.13-12.02-6.77-15.42-10.94-3.4-4.17-5.1-9.01-5.1-14.51,0-7.34,2.73-13.19,8.19-17.54,5.46-4.36,12.67-6.54,21.64-6.54Z"/>
        <path d="M372.53,43.92l38.59,87.37h-17.82l-9.07-21.26h-38.84l-8.44,21.26h-17.7l36.02-87.37h17.26ZM350.51,97.2h28.21l-14.76-34.59-13.45,34.59Z"/>
        <path d="M429.98,43.92v50.85c0,5.21.78,9.36,2.35,12.45,1.56,3.09,4.12,5.63,7.66,7.63,3.54,2,7.67,3,12.38,3,5.17,0,9.56-.95,13.17-2.85,3.61-1.9,6.24-4.48,7.91-7.75,1.67-3.27,2.5-7.81,2.5-13.6v-49.72h16.89v51.91c0,11.76-3.52,20.8-10.57,27.11-7.05,6.32-17.01,9.48-29.9,9.48-8.09,0-15.1-1.44-21.05-4.32-5.94-2.88-10.48-7.04-13.6-12.48-3.13-5.44-4.69-11.83-4.69-19.17v-52.54h16.95Z"/>
        <path d="M550.91,42.79c4.96,0,9.82.56,14.57,1.69,4.75,1.13,9.88,3.04,15.39,5.75v15.89c-5.38-3.08-10.35-5.32-14.92-6.69-4.57-1.38-9.33-2.06-14.29-2.06-6.21,0-11.82,1.28-16.82,3.85-5,2.56-8.89,6.18-11.66,10.85-2.77,4.67-4.16,9.86-4.16,15.57s1.38,11.07,4.13,15.7c2.75,4.63,6.63,8.2,11.63,10.73,5,2.52,10.63,3.78,16.89,3.78,4.79,0,9.37-.69,13.73-2.06,4.36-1.38,9.85-3.86,16.48-7.44v15.89c-5.67,2.96-10.88,5.07-15.64,6.32-4.75,1.25-10.3,1.88-16.64,1.88-9.22,0-17.45-1.83-24.7-5.5-7.25-3.67-12.96-8.95-17.11-15.85-4.15-6.9-6.22-14.46-6.22-22.67,0-8.8,2.14-16.7,6.41-23.7,4.27-7,10.15-12.4,17.64-16.2,7.48-3.79,15.92-5.69,25.3-5.69Z"/>
        <path d="M602.92,43.92l21.14,29.21,21.39-29.21h20.08l-33.02,44.09v43.28h-16.89v-43.4l-33.21-43.97h20.51Z"/>
        <path d="M283.99,157.29l28.71,34.46,28.71-34.46h15.07v87.37h-16.89v-61.35h-.5l-25.27,30.77h-2.38l-25.27-30.77h-.5v61.35h-16.89v-87.37h15.2Z"/>
        <path d="M432.22,157.29v13.2h-39.59v22.95h37.9v13.2h-37.9v24.83h40.46v13.2h-57.35v-87.37h56.48Z"/>
        <path d="M463.67,157.29l51.91,60.98v-60.98h16.51v87.37h-14.51l-52.22-61.98v61.98h-16.51v-87.37h14.82Z"/>
        <path d="M567.56,157.29v50.85c0,5.21.78,9.36,2.35,12.45,1.56,3.09,4.12,5.63,7.66,7.63,3.54,2,7.67,3,12.38,3,5.17,0,9.56-.95,13.17-2.85,3.61-1.9,6.24-4.48,7.91-7.75,1.67-3.27,2.5-7.81,2.5-13.6v-49.72h16.89v51.91c0,11.76-3.52,20.8-10.57,27.11-7.05,6.32-17.01,9.48-29.9,9.48-8.09,0-15.1-1.44-21.05-4.32-5.94-2.88-10.48-7.04-13.6-12.48-3.13-5.44-4.69-11.83-4.69-19.17v-52.54h16.95Z"/>
      </g>
      <g>
        <path class="cls-1" d="M226.07,171.04c0-.25.02-.56.03-.81V57.63c-.13-2.8-.92-12.31-8.41-20.62-8.94-9.94-20.78-10.76-23.1-10.88h-23.86v13.17c0,8.24-6.71,14.94-14.95,14.94h-85.46c-8.24,0-14.95-6.7-14.95-14.94v-13.17h-23.85C14.11,26.13,0,40.24,0,57.63c.26,66.41.53,132.83.79,199.24.1.9.69,5.67,4.38,7.82,3.74,2.19,9.24.82,12-2.03,6.46-6.68-4.62-18.49.29-33.38,2.35-7.11,8.67-14.85,16.69-15.78,6.7-.78,14.63,3.22,18.38,9.61,6.81,11.61-.57,30.47-1.02,48.77,0,.09,0,.23,0,.42-.05,5.77-.1,11.75,2.69,16.36.55.91,3.77,6.23,8.64,6.25,3.93.02,6.72-3.41,7.54-4.41,4.55-5.59,4.03-13.06,3.56-18.62-2.53-30.1-5.03-35.57-1.2-42.96,2.47-4.77,7.8-10.12,14.46-10.19,8.23-.1,14.94,4.35,14.94,9.84-.53,5.87-1.06,11.74-1.6,17.61-1.65,10.42,4.71,18.16,10.48,18.39,3.97.16,8.07-3.22,10.48-7.91.3-2.82.69-7.4.74-13.06.11-15.16-2.44-19.56.89-25.15,3.04-5.12,9.31-8.27,15.11-8.32,5.96-.05,10.33,3.15,12.26,4.82,0,0,.45.39.86.79,5.47,5.35,3.5,27.27,3.13,31.11-.45,2.39-4.27,23.97,4.9,32,1.28,1.13,4.19,3.67,7.85,3.31,4.11-.4,6.69-4.22,7.23-5.03,3.57-5.29,2.47-12.39.12-26.36-.46-2.76-1.99-11.38.42-18.88.21-.65.37-1.07.54-1.44,2.2-4.69,7.39-8.78,13.07-9,8.44-.32,14.35,8.89,14.94,9.84,9.4,15.27-4.63,33.09,4.63,41.92,2.54,2.42,6.36,3.72,9.56,2.94,4.97-1.21,8.71-7.52,9.17-15.93-1.75-30.17-2.01-59.9-.87-89.17Z"/>
        <path class="cls-1" d="M70.32,46.26h85.46c3.86,0,6.98-3.12,6.98-6.97v-19.91c0-3.84-3.12-6.97-6.98-6.97h-17.14v-6.09c0-3.49-2.84-6.33-6.33-6.33h-38.52c-3.51,0-6.33,2.84-6.33,6.33v6.09h-17.15c-3.86,0-6.98,3.12-6.98,6.97v19.91c0,3.84,3.12,6.97,6.98,6.97Z"/>
      </g>
    </g>
    <g>
      <path d="M702.87,21.96c0,10.31-8.36,18.67-18.67,18.67s-18.67-8.36-18.67-18.67,8.36-18.67,18.67-18.67,18.67,8.36,18.67,18.67ZM698.86,21.96c0-8.1-6.56-14.66-14.66-14.66s-14.66,6.56-14.66,14.66,6.56,14.66,14.66,14.66,14.66-6.56,14.66-14.66Z"/>
      <path d="M688.27,31.32l-3.63-8.06c-.95-.08-1.77-.07-2.81,0l-.07,8.04c-1.32.12-2.5.09-3.92.02V11.77s8.9.02,8.9.02c3.09,0,5.43,2.49,5.42,5.54.22,2.57-1.24,4.77-3.71,5.56l3.93,8.34c-1.31.28-2.63.15-4.1.09ZM686.39,20.06c1.41-.26,1.98-1.59,1.86-2.69-.15-1.26-1.15-2.23-2.48-2.23h-3.98s0,5.01,0,5.01c1.52,0,3.03.2,4.6-.09Z"/>
    </g>
  </g>
</svg>