<?xml version="1.0" encoding="UTF-8"?>
<svg id="Layer_2" data-name="Layer 2" xmlns="http://www.w3.org/2000/svg" viewBox="0 0 667.96 296.68">
  <defs>
    <style>
      .cls-1 {
        fill: #f7941d;
      }

      .cls-2 {
        fill: #ed1c24;
      }
    </style>
  </defs>
  <g id="Layer_1-2" data-name="Layer 1">
    <g>
      <g>
        <path d="M296.56,46.84c8.51,0,16.7,2.13,24.58,6.38v15.01c-9.05-5.46-17.07-8.19-24.08-8.19-4.25,0-7.58,.82-9.98,2.47-2.4,1.65-3.6,3.85-3.6,6.6,0,3.29,2.23,6.34,6.69,9.13,1.25,.83,6.07,3.17,14.45,7,7.17,3.38,12.34,7.13,15.51,11.26,3.17,4.13,4.75,9.09,4.75,14.88,0,7.5-2.7,13.56-8.1,18.17-5.4,4.61-12.39,6.91-20.98,6.91-5.59,0-10.39-.62-14.42-1.85-4.02-1.23-8.54-3.35-13.54-6.35v-16.64c9.34,7.76,18.14,11.63,26.39,11.63,4.13,0,7.46-.9,10.01-2.69,2.54-1.79,3.81-4.17,3.81-7.13,0-4.04-2.21-7.34-6.63-9.88-3.67-2-8.4-4.4-14.2-7.19-6.88-3.13-12.02-6.78-15.42-10.95-3.4-4.17-5.1-9.01-5.1-14.51,0-7.34,2.73-13.19,8.19-17.54,5.46-4.36,12.67-6.54,21.64-6.54Z"/>
        <path d="M374.96,47.97l38.59,87.37h-17.82l-9.07-21.26h-38.84l-8.44,21.26h-17.7l36.02-87.37h17.26Zm-22.02,53.29h28.21l-14.76-34.59-13.45,34.59Z"/>
        <path d="M432.41,47.97v50.85c0,5.21,.78,9.36,2.35,12.45s4.12,5.63,7.66,7.63c3.54,2,7.67,3,12.38,3,5.17,0,9.56-.95,13.17-2.85,3.61-1.9,6.24-4.48,7.91-7.75,1.67-3.27,2.5-7.81,2.5-13.6V47.97h16.89v51.91c0,11.76-3.52,20.79-10.57,27.11-7.05,6.32-17.01,9.48-29.9,9.48-8.09,0-15.1-1.44-21.05-4.32-5.94-2.88-10.48-7.04-13.6-12.48s-4.69-11.83-4.69-19.17V47.97h16.95Z"/>
        <path d="M553.35,46.84c4.96,0,9.82,.56,14.57,1.69,4.75,1.13,9.88,3.04,15.39,5.75v15.89c-5.38-3.09-10.35-5.32-14.92-6.69-4.57-1.38-9.33-2.06-14.29-2.06-6.21,0-11.82,1.28-16.82,3.85-5,2.56-8.89,6.18-11.66,10.85-2.77,4.67-4.16,9.86-4.16,15.57s1.38,11.07,4.13,15.7c2.75,4.63,6.63,8.2,11.63,10.73,5,2.52,10.63,3.78,16.89,3.78,4.79,0,9.37-.69,13.73-2.06,4.36-1.38,9.85-3.86,16.48-7.44v15.89c-5.67,2.96-10.88,5.07-15.64,6.32-4.75,1.25-10.3,1.88-16.64,1.88-9.22,0-17.45-1.83-24.7-5.5s-12.96-8.95-17.11-15.86c-4.15-6.9-6.22-14.46-6.22-22.67,0-8.8,2.14-16.7,6.41-23.7,4.27-7,10.15-12.4,17.64-16.2,7.48-3.79,15.92-5.69,25.3-5.69Z"/>
        <path d="M605.36,47.97l21.14,29.21,21.39-29.21h20.08l-33.02,44.09v43.28h-16.89v-43.4l-33.21-43.97h20.51Z"/>
        <path d="M286.43,161.34l28.71,34.46,28.71-34.46h15.07v87.37h-16.89v-61.35h-.5l-25.27,30.77h-2.38l-25.27-30.77h-.5v61.35h-16.89v-87.37h15.2Z"/>
        <path d="M434.65,161.34v13.2h-39.59v22.95h37.9v13.2h-37.9v24.83h40.46v13.2h-57.35v-87.37h56.48Z"/>
        <path d="M466.11,161.34l51.91,60.98v-60.98h16.51v87.37h-14.51l-52.22-61.98v61.98h-16.51v-87.37h14.82Z"/>
        <path d="M570,161.34v50.85c0,5.21,.78,9.36,2.35,12.45,1.56,3.09,4.12,5.63,7.66,7.63,3.54,2,7.67,3,12.38,3,5.17,0,9.56-.95,13.17-2.85,3.61-1.9,6.24-4.48,7.91-7.76,1.67-3.27,2.5-7.81,2.5-13.6v-49.72h16.89v51.91c0,11.76-3.52,20.8-10.57,27.11-7.05,6.32-17.01,9.48-29.9,9.48-8.09,0-15.1-1.44-21.05-4.32-5.94-2.88-10.48-7.04-13.6-12.48s-4.69-11.83-4.69-19.17v-52.54h16.95Z"/>
      </g>
      <g>
        <g>
          <path class="cls-2" d="M224.2,173.83c0-.25,.02-.55,.03-.81V61.36c-.13-2.78-.92-12.21-8.34-20.45-8.87-9.86-20.61-10.68-22.9-10.79h-23.67v13.06c0,8.17-6.66,14.81-14.83,14.81H69.74c-8.17,0-14.83-6.64-14.83-14.81v-13.06H31.26C13.99,30.12,0,44.11,0,61.36c.26,65.86,.52,131.73,.78,197.59,.1,.89,.69,5.63,4.34,7.76,3.71,2.17,9.16,.81,11.9-2.02,6.41-6.63-4.59-18.34,.29-33.11,2.33-7.05,8.6-14.72,16.55-15.65,6.64-.77,14.51,3.19,18.23,9.53,6.75,11.51-.57,30.21-1.01,48.36,0,.09,0,.23,0,.41-.05,5.72-.1,11.65,2.67,16.23,.54,.9,3.73,6.18,8.57,6.2,3.9,.02,6.67-3.38,7.48-4.38,4.51-5.54,3.99-12.95,3.53-18.47-2.51-29.85-4.99-35.27-1.19-42.61,2.45-4.73,7.73-10.04,14.34-10.1,8.16-.09,14.81,4.32,14.81,9.75-.53,5.82-1.05,11.64-1.58,17.46-1.64,10.33,4.68,18.01,10.4,18.24,3.93,.16,8-3.19,10.4-7.84,.3-2.8,.69-7.34,.73-12.95,.11-15.04-2.42-19.39,.88-24.95,3.02-5.07,9.23-8.2,14.99-8.25,5.91-.05,10.25,3.12,12.16,4.78,0,0,.45,.38,.85,.78,5.42,5.31,3.47,27.04,3.1,30.86-.44,2.37-4.23,23.77,4.86,31.74,1.27,1.12,4.15,3.64,7.78,3.28,4.08-.4,6.64-4.19,7.17-4.99,3.54-5.25,2.45-12.28,.12-26.15-.46-2.74-1.97-11.28,.42-18.72,.21-.65,.37-1.06,.54-1.43,2.18-4.65,7.33-8.71,12.96-8.92,8.37-.32,14.23,8.81,14.81,9.75,9.32,15.14-4.59,32.82,4.59,41.57,2.52,2.4,6.31,3.69,9.49,2.92,4.92-1.2,8.63-7.45,9.1-15.8-1.74-29.92-1.99-59.4-.86-88.43Z"/>
          <path class="cls-2" d="M69.74,50.09h84.76c3.83,0,6.93-3.1,6.93-6.91V23.43c0-3.81-3.1-6.91-6.93-6.91h-17v-6.04c0-3.46-2.81-6.28-6.28-6.28h-38.2c-3.48,0-6.28,2.81-6.28,6.28v6.04h-17.01c-3.83,0-6.93,3.1-6.93,6.91v19.75c0,3.81,3.1,6.91,6.93,6.91Z"/>
        </g>
        <g>
          <path class="cls-1" d="M228.52,169.63c0-.25,.02-.55,.03-.81V57.15c-.13-2.78-.92-12.21-8.34-20.45-8.87-9.86-20.61-10.68-22.9-10.79h-23.67v13.06c0,8.17-6.66,14.81-14.83,14.81H74.05c-8.17,0-14.83-6.64-14.83-14.81v-13.06h-23.65c-17.26,0-31.26,13.99-31.26,31.24,.26,65.86,.52,131.73,.78,197.59,.1,.89,.69,5.63,4.34,7.76,3.71,2.17,9.16,.81,11.9-2.02,6.41-6.63-4.59-18.34,.29-33.11,2.33-7.05,8.6-14.72,16.55-15.65,6.64-.77,14.51,3.19,18.23,9.53,6.75,11.51-.57,30.21-1.01,48.36,0,.09,0,.23,0,.41-.05,5.72-.1,11.65,2.67,16.23,.54,.9,3.73,6.18,8.57,6.2,3.9,.02,6.67-3.38,7.48-4.38,4.51-5.54,3.99-12.95,3.53-18.47-2.51-29.85-4.99-35.27-1.19-42.61,2.45-4.73,7.73-10.04,14.34-10.1,8.16-.09,14.81,4.32,14.81,9.75-.53,5.82-1.05,11.64-1.58,17.46-1.64,10.33,4.68,18.01,10.4,18.24,3.93,.16,8-3.19,10.4-7.84,.3-2.8,.69-7.34,.73-12.95,.11-15.04-2.42-19.39,.88-24.95,3.02-5.07,9.23-8.2,14.99-8.25,5.91-.05,10.25,3.12,12.16,4.78,0,0,.45,.38,.85,.78,5.42,5.31,3.47,27.04,3.1,30.86-.44,2.37-4.23,23.77,4.86,31.74,1.27,1.12,4.15,3.64,7.78,3.28,4.08-.4,6.64-4.19,7.17-4.99,3.54-5.25,2.45-12.28,.12-26.15-.46-2.74-1.97-11.28,.42-18.72,.21-.65,.37-1.06,.54-1.43,2.18-4.65,7.33-8.71,12.96-8.92,8.37-.32,14.23,8.81,14.81,9.75,9.32,15.14-4.59,32.82,4.59,41.57,2.52,2.4,6.31,3.69,9.49,2.92,4.92-1.2,8.63-7.45,9.1-15.8-1.74-29.92-1.99-59.4-.86-88.43Z"/>
          <path class="cls-1" d="M74.05,45.88h84.76c3.83,0,6.93-3.1,6.93-6.91V19.23c0-3.81-3.1-6.91-6.93-6.91h-17V6.28c0-3.46-2.81-6.28-6.28-6.28h-38.2c-3.48,0-6.28,2.81-6.28,6.28v6.04h-17.01c-3.83,0-6.93,3.1-6.93,6.91v19.75c0,3.81,3.1,6.91,6.93,6.91Z"/>
        </g>
      </g>
    </g>
  </g>
</svg>